<?xml version="1.0" encoding="utf-8"?>
<!-- Generator: Adobe Illustrator 19.2.1, SVG Export Plug-In . SVG Version: 6.00 Build 0)  -->
<svg version="1.1" id="Layer_1" xmlns="http://www.w3.org/2000/svg" xmlns:xlink="http://www.w3.org/1999/xlink" x="0px" y="0px"
	 viewBox="0 0 16 16" style="enable-background:new 0 0 16 16;" xml:space="preserve">
<g>
	<path fill="#BDBDBD" d="M15,6v2h-4V6h-1v2H6V6H5v2H1V6H0v2v1v2v1v2v1h16v-1v-2v-1V9V8V6H15z M10,9v2H6V9H10z M1,9h4v2H1V9z M1,14v-2h4
		v2H1z M6,14v-2h4v2H6z M15,14h-4v-2h4V14z M15,11h-4V9h4V11z"/>
	<path fill="#757575" d="M0,1v5h16V1H0z M5,4H1V3h4V4z M10,4H6V3h4V4z"/>
</g>
</svg>
